# xmcd
#
# Track frame offsets:
#	150
#	14514
#	27771
#	41013
#
# Disc length: 723
#
# Revision: 4
# Processed by: cddbd v1.5.2PL0 Copyright (c) Steve Scherf et al.
# Submitted via: kJams Lite (development) 1.0patch50.26
#
DISCID=2802d104
DTITLE=Billie Holiday - Same Old Story (SingleCD)
DYEAR=1995
DGENRE=Blues
TTITLE0=Billie Holiday - Same Old Story
TTITLE1=Billie Holiday - Summertime
TTITLE2=Billie Holiday - Am I Blue?
TTITLE3=Billie Holiday - Night And Day
EXTD=
EXTT0=
EXTT1=
EXTT2=
EXTT3=
PLAYORDER=
